<svg xmlns="http://www.w3.org/2000/svg" data-name="Layer 1" viewBox="0 0 512 512" id="email-advertisement"><path fill="#ffe236" d="M488.98 242.65 251.86 403.14 22.06 243.35l17.05-10.8 48.61-30.8 333.88-.05 51.03 31.01 16.35 9.94z"></path><path fill="#f7f7f7" d="M89 383.65V37.5a30 30 0 0 1 30-30h274a30 30 0 0 1 30 30v346.15Z"></path><path fill="#ffc166" d="M370.29 124v135.27a16.8 16.8 0 0 1-17 16.62h-194.6a16.8 16.8 0 0 1-17-16.62V124a16.8 16.8 0 0 1 17-16.62h194.62A16.8 16.8 0 0 1 370.29 124Z"></path><path fill="#ffb74e" d="M353.31 107.41h-30a16.8 16.8 0 0 1 17 16.62v135.24a16.8 16.8 0 0 1-17 16.62h30a16.8 16.8 0 0 0 17-16.62V124a16.8 16.8 0 0 0-17-16.59Z"></path><path fill="#676e87" d="M315.3 114.91a7.5 7.5 0 0 1-7.5-7.5v-22a11.09 11.09 0 0 0-11.27-10.87h-81.06a11.09 11.09 0 0 0-11.27 10.88v22a7.5 7.5 0 1 1-15 0v-22a26.11 26.11 0 0 1 26.27-25.87h81.06a26.11 26.11 0 0 1 26.27 25.87v22a7.5 7.5 0 0 1-7.5 7.49Z"></path><path fill="#ffae36" d="M370.29 124v34l-91.18 44.52h-46.23L141.71 158v-34a16.8 16.8 0 0 1 17-16.62h194.6A16.8 16.8 0 0 1 370.29 124Z"></path><path fill="#ffa41f" d="M353.31 107.41h-30a16.8 16.8 0 0 1 17 16.62v48.59l30-14.65V124a16.8 16.8 0 0 0-17-16.59Z"></path><rect width="46.23" height="45.25" x="232.88" y="187.95" fill="#676e87" rx="7"></rect><path fill="#595f74" d="M272.11 188h-20.87a7 7 0 0 1 7 7v31.2a7 7 0 0 1-7 7h20.87a7 7 0 0 0 7-7V195a7 7 0 0 0-7-7Z"></path><path fill="#ffdf1f" d="M489 242.65 251.86 403.14 22.06 243.35l17.05-10.8 162.21 103.08 13.06 8.29 20.2 12.84a40.09 40.09 0 0 0 42.84 0l20.2-12.84 13-8.28 162-102.93Z"></path><path fill="#eee" d="m89 289.91 134.82 93.74h56.81L423 287.32v-23.06l-112.34 71.38-13 8.28-20.2 12.84a40.09 40.09 0 0 1-42.84 0l-20.2-12.84-13.06-8.29L89 264.27Z"></path><path fill="#ffe966" d="M491.33 245.83v229.83c0 15.93-13.19 28.84-29.46 28.84H50.13c-16.27 0-29.46-12.91-29.46-28.84V245.93a3.72 3.72 0 0 1 2.38-3.21 9.38 9.38 0 0 1 9.35.56l168.92 107.35 13.06 8.29 20.2 12.84a40.09 40.09 0 0 0 42.84 0l20.2-12.84 13-8.28L479.73 243.2a9.31 9.31 0 0 1 9.25-.55 3.7 3.7 0 0 1 2.35 3.18Z"></path><path fill="#ffe236" d="M489 242.65a9.31 9.31 0 0 0-9.25.55l-18.4 11.7v220.76c0 15.93-13.19 28.84-29.46 28.84h30c16.27 0 29.46-12.91 29.46-28.84V245.83a3.7 3.7 0 0 0-2.35-3.18zM214.38 358.92a7.62 7.62 0 0 1-1.73 1.91L93.61 453a7.5 7.5 0 1 1-9.18-11.86l116.89-90.54zm212.46 92.76a7.49 7.49 0 0 1-5.9 2.86 7.41 7.41 0 0 1-4.63-1.61l-117-92.14a7.29 7.29 0 0 1-1.69-1.87l13-8.28 114.93 90.51a7.5 7.5 0 0 1 1.29 10.53z"></path><path fill="#272a33" d="M496.59 239.34a7.49 7.49 0 0 0-3-3.85l-63.06-40V37.5A37.54 37.54 0 0 0 393 0H119a37.54 37.54 0 0 0-37.5 37.5v158l-63.06 40a7.52 7.52 0 0 0-3.12 4 10.32 10.32 0 0 0-2.17 6.41v229.75c0 20 16.58 36.34 37 36.34h411.72c20.38 0 37-16.3 37-36.34V245.83a10.3 10.3 0 0 0-2.28-6.49Zm-66.11-26.11 41.24 26.18-41.24 26.2ZM96.52 37.5A22.52 22.52 0 0 1 119 15h274a22.52 22.52 0 0 1 22.5 22.5v161a7.46 7.46 0 0 0 0 2.11v74.55l-142.1 90.27a32.6 32.6 0 0 1-34.8 0L96.52 275.14Zm-15 175.73v52.38l-41.23-26.2Zm402.31 262.43c0 11.77-9.85 21.34-22 21.34H50.13c-12.11 0-22-9.57-22-21.34V249.48L195 355.51 84.43 441.17A7.5 7.5 0 1 0 93.61 453l114.87-89 22.08 14a47.62 47.62 0 0 0 50.88 0l22-14 112.83 88.85a7.41 7.41 0 0 0 4.63 1.61 7.5 7.5 0 0 0 4.65-13.39L316.9 355.56l166.93-106.07Zm-106-216.39V124a24.33 24.33 0 0 0-24.48-24.12H322.8V85.42a26.11 26.11 0 0 0-26.27-25.87h-81.06a26.11 26.11 0 0 0-26.27 25.87v14.49h-30.51A24.33 24.33 0 0 0 134.21 124v135.27a24.33 24.33 0 0 0 24.48 24.12h194.62a24.33 24.33 0 0 0 24.48-24.12ZM204.2 85.42a11.09 11.09 0 0 1 11.27-10.87h81.06a11.09 11.09 0 0 1 11.27 10.87v14.49H204.2Zm-55 38.61a9.31 9.31 0 0 1 9.48-9.12h194.63a9.31 9.31 0 0 1 9.48 9.12v29.25L286 190.78a14.52 14.52 0 0 0-13.88-10.33h-32.24A14.52 14.52 0 0 0 226 190.78l-76.79-37.5Zm122.41 71.42v30.25h-31.23v-30.25Zm-122.4 63.82V170l76.17 37.2v19a14.52 14.52 0 0 0 14.5 14.5h32.24a14.52 14.52 0 0 0 14.5-14.5v-19l76.17-37.2v89.3a9.31 9.31 0 0 1-9.48 9.12H158.69a9.31 9.31 0 0 1-9.48-9.15Z"></path></svg>